# xmcd CD database file
#
# Track frame offsets:
#	150
#	20330
#	47325
#	70987
#	92565
#	114710
#	134615
#	160012
#	186292
#
# Disc length: 2645 seconds
#
# Revision: 0
# Processed by: cddbd v1.4PL0 Copyright (c) Steve Scherf et al.
# Submitted via: CDex 1.50beta10
#
DISCID=730a5309
DTITLE=Jan Schaffer - Electric Graffiti
DYEAR=1989
DGENRE=Jazz
TTITLE0=Berzelli Park
TTITLE1=Ellipse
TTITLE2=Silent Running
TTITLE3=Pipeline
TTITLE4=Via Danielli
TTITLE5=Dorothee's Farewell
TTITLE6=Indigo
TTITLE7=Electric Graffiti
TTITLE8=Time
EXTD=YEAR: 1989
EXTT0=
EXTT1=
EXTT2=
EXTT3=
EXTT4=
EXTT5=
EXTT6=
EXTT7=
EXTT8=
PLAYORDER=
